# AST/ASF file generated using VICON BodyLanguage
# -----------------------------------------------
:version 1.10
:name VICON
:units
  mass 1.0
  length 0.45
  angle deg
:documentation
   .ast/.asf automatically generated from VICON data using
   VICON BodyBuilder and BodyLanguage model FoxedUp or BRILLIANT.MOD
:root
   order TX TY TZ RX RY RZ
   axis XYZ
   position 0 0 0  
   orientation 0 0 0 
:bonedata
  begin
     id 1 
     name lhipjoint
     direction 0.653368 -0.678499 0.335782 
     length 2.51848 
     axis 0 0 0  XYZ
  end
  begin
     id 2 
     name lfemur
     direction 0.34202 -0.939693 0  
     length 6.57749  
     axis 0 0 20  XYZ
    dof rx ry rz
    limits (-160.0 20.0)
           (-70.0 70.0)
           (-60.0 70.0)
  end
  begin
     id 3 
     name ltibia
     direction 0.34202 -0.939693 0   
     length 7.94618   
     axis 0 0 20   XYZ
    dof rx
    limits (-10.0 170.0)
  end
  begin
     id 4 
     name lfoot
     direction 0.0811271 -0.222895 0.971461   
     length 2.31339   
     axis -90 7.62852e-016 20   XYZ
    dof rx rz
    limits (-45.0 90.0)
           (-70.0 20.0)
  end
  begin
     id 5 
     name ltoes
     direction 1.53568e-011 -4.21885e-011 1   
     length 1.15935   
     axis -90 7.62852e-016 20   XYZ
    dof rx
    limits (-90.0 20.0)
  end
  begin
     id 6 
     name rhipjoint
     direction -0.640058 -0.688614 0.340788   
     length 2.48149  
     axis 0 0 0  XYZ 
  end
  begin
     id 7 
     name rfemur
     direction -0.34202 -0.939693 0   
     length 6.57875   
     axis 0 0 -20   XYZ
    dof rx ry rz
    limits (-160.0 20.0)
           (-70.0 70.0)
           (-70.0 60.0)
  end
  begin
     id 8 
     name rtibia
     direction -0.34202 -0.939693 0   
     length 7.977   
     axis 0 0 -20   XYZ
    dof rx
    limits (-10.0 170.0)
 end
 begin
     id 9 
     name rfoot
     direction -0.0979793 -0.269196 0.958089   
     length 2.19857  
     axis -90 -7.62852e-016 -20   XYZ
    dof rx rz
    limits (-45.0 90.0)
           (-20.0 70.0)
  end
  begin
     id 10 
     name rtoes
     direction -1.53556e-011 -4.21868e-011 1   
     length 1.09838   
     axis -90 -7.62852e-016 -20   XYZ
    dof rx
    limits (-90.0 20.0)
  end
  begin
     id 11 
     name lowerback
     direction 0.0149039 0.998517 -0.0523597   
     length 2.10809   
     axis 0 0 0   XYZ
    dof rx ry rz
    limits (-20.0 45.0)
           (-30.0 30.0)
           (-30.0 30.0)
  end
  begin
     id 12 
     name upperback
     direction -0.00882659 0.999418 -0.0329624   
     length 2.1102   
     axis 0 0 0   XYZ
    dof rx ry rz
    limits (-20.0 45.0)
           (-30.0 30.0)
           (-30.0 30.0)
  end
  begin
     id 13 
     name thorax
     direction -0.0165585 0.999826 -0.0085833   
     length 2.11039   
     axis 0 0 0   XYZ
    dof rx ry rz
    limits (-20.0 45.0)
           (-30.0 30.0)
           (-30.0 30.0)
  end
  begin
     id 14 
     name lowerneck
     direction -0.0130877 0.999911 0.00260353   
     length 1.73253   
     axis 0 0 0   XYZ
    dof rx ry rz
    limits (-20.0 45.0)
           (-30.0 30.0)
           (-30.0 30.0)
  end
  begin
     id 15 
     name upperneck
     direction -0.0348454 0.928205 -0.370435   
     length 1.66692   
     axis 0 0 0   XYZ
    dof rx ry rz
    limits (-20.0 45.0)
           (-30.0 30.0)
           (-30.0 30.0)
  end
  begin
     id 16
     name head
     direction -0.00807754 0.992494 -0.122026  
     length 1.72765  
     axis 0 0 0   XYZ
    dof rx ry rz
    limits (-20.0 45.0)
           (-30.0 30.0)
           (-30.0 30.0)
  end
  begin
     id 17 
     name lclavicle
     direction 0.987582 0.144023 0.0627671  
     length 3.49235  
     axis 0 0 0   XYZ
    dof ry rz
    limits (-20.0 10.0)
           (0.0 20.0)
  end
  begin
     id 18 
     name lhumerus
     direction 1 -4.48958e-011 -1.45183e-018   
     length 5.41917   
     axis 180 -30 -90   XYZ
    dof rx ry rz
    limits (-60.0 90.0)
           (-90.0 90.0)
           (-90.0 90.0)
  end
  begin
     id 19
     name lradius
     direction 1 -4.48999e-011 5.75106e-027   
     length 2.44373   
     axis 180 -30 -90   XYZ
    dof rx
    limits (-10.0 170.0)
  end
  begin
     id 20
     name lwrist
     direction 1 -4.48987e-011 1.53461e-026   
     length 1.22186   
     axis -1.09697e-014 90 90   XYZ
    dof ry
    limits (-180.0 0.0)
 end
  begin
     id 21 
     name lhand
     direction 1 -4.48881e-011 3.06923e-026   
     length 0.727502   
     axis -1.95843e-014 90 90   XYZ
    dof rx rz
    limits (-90.0 90.0)
           (-45.0 45.0)
  end
  begin
     id 22 
     name lfingers
     direction 1 -4.48907e-011 6.13845e-026   
     length 0.586531   
     axis -3.91686e-014 90 90   XYZ
    dof rx
    limits (0.0 90.0)
  end
  begin
     id 23
     name lthumb
     direction 0.707107 -6.3487e-011 0.707107   
     length 0.842145   
     axis -90 45 2.85299e-015   XYZ
    dof rx rz
    limits (-45.0 45.0)
           (-45.0 45.0)
  end
  begin
     id 24 
     name rclavicle
     direction -0.980998 0.169556 0.0943023   
     length 3.29272  
     axis 0 0 0   XYZ 
    dof ry rz
    limits (-10.0 20.0)
           (-20.0 0.0)
  end
  begin
     id 25 
     name rhumerus
     direction -1 -1.83355e-005 2.45537e-005  
     length 5.58976   
     axis 180 30 90   XYZ
    dof rx ry rz
    limits (-90.0 60.0)
           (-90.0 90.0)
           (-90.0 90.0)
  end
  begin
     id 26 
     name rradius
     direction -1 -4.48967e-011 5.97228e-027   
     length 2.4806   
     axis 180 30 90   XYZ
    dof rx
    limits (-10.0 170.0)
  end
  begin
     id 27 
     name rwrist
     direction -1 -4.48963e-011 1.53461e-026   
     length 1.2403   
     axis -1.09697e-014 -90 -90   XYZ
    dof ry
    limits (-180.0 0.0)
  end
  begin
     id 28
     name rhand
     direction -1 -4.48881e-011 3.06923e-026   
     length 0.816009   
     axis -1.95843e-014 -90 -90   XYZ
    dof rx rz
    limits (-90.0 90.0)
           (-45.0 45.0)
  end
  begin
     id 29
     name rfingers
     direction -1 -4.49018e-011 6.13845e-026   
     length 0.657887   
     axis -3.91686e-014 -90 -90   XYZ
    dof rx
    limits (0.0 90.0)
  end
  begin
     id 30
     name rthumb
     direction -0.707107 -6.34872e-011 0.707107   
     length 0.944599   
     axis -90 -45 -2.85299e-015   XYZ
    dof rx rz
    limits (-45.0 45.0)
           (-45.0 45.0)
  end
:hierarchy
  begin
    root lhipjoint rhipjoint lowerback
    lhipjoint lfemur
    lfemur ltibia
    ltibia lfoot
    lfoot ltoes
    rhipjoint rfemur
    rfemur rtibia
    rtibia rfoot
    rfoot rtoes
    lowerback upperback
    upperback thorax
    thorax lowerneck lclavicle rclavicle
    lowerneck upperneck
    upperneck head
    lclavicle lhumerus
    lhumerus lradius
    lradius lwrist
    lwrist lhand lthumb
    lhand lfingers
    rclavicle rhumerus
    rhumerus rradius
    rradius rwrist
    rwrist rhand rthumb
    rhand rfingers
  end

#!OML:ASF F:\VICON\USERDATA\INSTALL\rory3\rory3.ASF
:FULLY-SPECIFIED
:DEGREES
113
root -2.32033 15.5486 -21.2176 179.708 2.08717 -152.637
lowerback 12.3404 -5.97964 -0.636083
upperback 0.00403211 -7.96449 0.803724
thorax -6.67282 -3.85095 2.60838
lowerneck 3.4352 -19.8975 -15.4367
upperneck 11.1174 -27.4761 5.14416
head 5.62118 -13.9695 2.05583
rclavicle -6.52014e-014 9.54166e-015
rhumerus -16.8743 12.9114 -32.8374
rradius 26.2831
rwrist -16.3269
rhand 29.2779 5.4066
rfingers 7.12502
rthumb 53.0566 -14.0499
lclavicle -6.52014e-014 9.54166e-015
lhumerus -109.671 -129.094 165.651
lradius 81.4134
lwrist 59.1034
lhand 36.7358 31.4397
lfingers 7.12502
lthumb 59.6387 45.5938
rfemur -86.2473 30.5023 3.44314
rtibia 44.1016
rfoot 7.34779 -4.21983
rtoes 10.6846
lfemur -21.686 -2.90696 -5.07452
ltibia 58.483
lfoot -37.8024 21.456
ltoes -17.8629
114
root -2.43205 15.6516 -21.112 179.651 3.56057 -152.916
lowerback 13.1681 -6.52836 -0.47928
upperback 0.272592 -8.68014 0.511236
thorax -6.88958 -4.19898 2.42791
lowerneck 2.98343 -19.5803 -15.6049
upperneck 10.4089 -26.9775 5.28173
head 5.45585 -13.7116 2.1617
rclavicle 1.78906e-014 -8.5875e-014
rhumerus -15.0362 11.6348 -31.135
rradius 26.2163
rwrist -17.0603
rhand 29.1133 6.07308
rfingers 7.12502
rthumb 52.908 -13.4774
lclavicle 1.78906e-014 -8.5875e-014
lhumerus -111.12 -133.244 169.4
lradius 82.5816
lwrist 60.7413
lhand 34.6038 31.758
lfingers 7.12502
lthumb 57.7915 47.665
rfemur -88.6614 29.2113 0.400985
rtibia 43.9516
rfoot 8.63207 -7.7015
rtoes 9.78956
lfemur -20.3514 -2.76121 -5.92295
ltibia 56.5359
lfoot -37.358 22.0285
ltoes -15.4608
115
root -2.5645 15.7907 -21.026 179.308 3.63793 -153.739
lowerback 14.2458 -7.58477 -0.601912
upperback 0.408133 -10.128 0.106781
thorax -7.34728 -4.88791 2.48365
lowerneck 2.35736 -19.473 -15.2004
upperneck 9.59357 -26.7045 5.15356
head 5.19455 -13.5484 2.11123
rclavicle -1.41535e-013 -9.54166e-015
rhumerus -13.2598 10.1939 -29.5151
rradius 26.2412
rwrist -17.5501
rhand 28.9482 6.18741
rfingers 7.12502
rthumb 52.7589 -13.4564
lclavicle -1.41535e-013 -9.54166e-015
lhumerus -112.793 -136.934 173.526
lradius 83.1486
lwrist 61.8048
lhand 35.069 30.5787
lfingers 7.12502
lthumb 58.1973 46.1217
rfemur -90.7825 27.3204 -4.42367
rtibia 44.1303
rfoot 9.11533 -13.3417
rtoes 13.9004
lfemur -18.8342 -4.04877 -7.51987
ltibia 54.1102
lfoot -36.2889 23.3899
ltoes -14.8169
116
root -2.71532 15.9234 -20.9438 178.672 4.74354 -155.121
lowerback 15.9331 -8.2029 -1.57267
upperback 0.354876 -11.1532 -0.256941
thorax -8.1957 -5.31277 3.087
lowerneck 1.96604 -19.1569 -15.2947
upperneck 9.04846 -26.1437 4.77114
head 4.98837 -13.274 2.07979
rclavicle 9.66093e-014 -1.27222e-013
rhumerus -11.5986 10.003 -27.839
rradius 26.8088
rwrist -19.5235
rhand 28.3299 5.28152
rfingers 7.12502
rthumb 52.1994 -14.7049
lclavicle 9.66093e-014 -1.27222e-013
lhumerus -114.574 -140.305 178.092
lradius 84.1836
lwrist 63.9977
lhand 33.8075 30.5686
lfingers 7.12502
lthumb 57.0936 47.0764
rfemur -91.1211 24.4669 -5.31073
rtibia 44.5868
rfoot 10.4875 -14.4675
rtoes 15.9591
lfemur -16.4314 -4.6373 -9.92784
ltibia 51.1725
lfoot -35.2503 25.0502
ltoes -13.6153
117
root -2.81017 16.0322 -20.8313 178.594 6.59995 -154.249
lowerback 17.2396 -8.47303 -0.476271
upperback 0.742078 -11.2925 -0.454163
thorax -8.74098 -5.38506 2.51339
lowerneck 0.864371 -18.727 -13.5319
upperneck 8.07673 -25.3439 4.19093
head 4.48666 -12.8225 1.81273
rclavicle 1.47101e-014 1.08139e-013
rhumerus -11.0012 9.14213 -27.0413
rradius 27.3032
rwrist -22.0198
rhand 26.7667 5.03269
rfingers 7.12502
rthumb 50.778 -15.7718
lclavicle 1.47101e-014 1.08139e-013
lhumerus -114.373 -144.227 180.827
lradius 85.1221
lwrist 66.064
lhand 33.5923 30.0924
lfingers 7.12502
lthumb 56.9043 46.7578
rfemur -93.4686 23.9326 -8.22624
rtibia 44.3481
rfoot 10.036 -19.9776
rtoes 18.6167
lfemur -14.791 -3.98452 -9.15031
ltibia 48.4419
lfoot -34.4632 24.9003
ltoes -9.62465
118
root -2.91066 16.2075 -20.7905 177.445 8.4189 -152.719
lowerback 17.3255 -8.87718 1.67587
upperback 2.4478 -11.3303 -1.07806
thorax -7.47659 -5.47297 0.598453
lowerneck 0.0115991 -18.4507 -11.7315
upperneck 6.4199 -24.8915 4.53302
head 3.89407 -12.5137 1.79656
rclavicle 2.70347e-014 4.13472e-014
rhumerus -10.4088 5.94754 -26.7757
rradius 26.9853
rwrist -22.6792
rhand 25.3461 5.87944
rfingers 7.12502
rthumb 49.4787 -15.6128
lclavicle 2.70347e-014 4.13472e-014
lhumerus -113.215 -148.643 182.702
lradius 85.9402
lwrist 68.8005
lhand 33.312 29.2237
lfingers 7.12502
lthumb 56.6574 46.0916
rfemur -94.5835 24.6417 -10.7375
rtibia 44.4473
rfoot 9.6671 -25.9779
rtoes 20.3307
lfemur -10.9859 -3.48784 -7.72099
ltibia 44.9541
lfoot -33.5712 24.7949
ltoes -5.94677
119
root -3.02063 16.3525 -20.7129 177.106 9.78724 -152.104
lowerback 18.6477 -9.62294 2.57558
upperback 2.66251 -12.0909 -1.30411
thorax -8.20254 -5.82899 0.282985
lowerneck -0.712666 -17.4607 -10.3382
upperneck 5.09075 -23.3621 3.3755
head 3.51988 -11.748 1.67047
rclavicle -1.89641e-013 1.20861e-013
rhumerus -9.08064 4.02704 -26.3059
rradius 26.4486
rwrist -22.3323
rhand 24.2804 6.76468
rfingers 7.12502
rthumb 48.4997 -15.2116
lclavicle -1.89641e-013 1.20861e-013
lhumerus -113.757 -151.615 185.675
lradius 86.5836
lwrist 71.7829
lhand 32.8101 28.352
lfingers 7.12502
lthumb 56.214 45.5745
rfemur -97.0763 24.7417 -16.9569
rtibia 43.9787
rfoot 7.58505 -33.659
rtoes 23.9196
lfemur -8.50994 -3.40331 -7.37926
ltibia 41.5713
lfoot -32.1642 25.4869
ltoes -4.37581
120
root -3.15095 16.5344 -20.7039 175.796 11.0425 -153.552
lowerback 17.2127 -9.47721 3.55999
upperback 5.05746 -11.7163 -3.80469
thorax -5.57392 -5.61555 -3.36705
lowerneck -2.6903 -18.297 -6.8011
upperneck 4.38739 -24.4396 3.43251
head 3.2027 -12.1754 1.03304
rclavicle 1.06151e-013 6.36111e-014
rhumerus -10.6379 -3.38942 -27.0294
rradius 25.2477
rwrist -19.8928
rhand 23.211 8.35329
rfingers 7.12502
rthumb 47.5137 -14.0833
lclavicle 1.06151e-013 6.36111e-014
lhumerus -109.115 -156.34 185.339
lradius 87.0865
lwrist 74.9484
lhand 32.6082 27.1041
lfingers 7.12502
lthumb 56.0353 44.4665
rfemur -99.0906 24.8265 -25.0095
rtibia 44.0363
rfoot 4.70014 -39.9422
rtoes 25.0036
lfemur -4.53573 -3.79651 -9.67442
ltibia 37.4218
lfoot -31.2861 26.571
ltoes -2.90068
121
root -3.25781 16.7051 -20.6603 175.382 12.8637 -152.555
lowerback 22.5953 -9.89935 3.5009
upperback 2.2498 -12.2274 -2.61664
thorax -11.289 -5.84822 -0.886724
lowerneck 0.23252 -17.5709 -7.92981
upperneck 4.28909 -23.5052 1.51597
head 2.48656 -11.8261 0.995137
rclavicle 1.51871e-013 2.22639e-014
rhumerus -10.7685 0.921195 -24.7328
rradius 25.908
rwrist -21.0193
rhand 21.6195 8.19255
rfingers 7.12502
rthumb 46.0407 -14.885
lclavicle 1.51871e-013 2.22639e-014
lhumerus -111.204 -154.94 190.548
lradius 86.816
lwrist 77.6343
lhand 32.4084 25.6119
lfingers 7.12502
lthumb 55.8582 43.111
rfemur -101.27 25.0035 -30.8513
rtibia 43.486
rfoot -0.904109 -45.6207
rtoes 29.0382
lfemur -1.38951 -3.4715 -8.83238
ltibia 33.6087
lfoot -29.7601 27.0906
ltoes -0.896032
122
root -3.37657 16.876 -20.6119 174.899 13.8791 -153.073
lowerback 23.0687 -10.9648 2.6787
upperback 2.64072 -13.7686 -2.54842
thorax -10.9836 -6.51294 0.177994
lowerneck -0.90414 -16.1341 -8.8282
upperneck 3.70999 -21.4139 1.31747
head 2.47101 -10.7717 1.09882
rclavicle 9.78021e-014 2.22639e-014
rhumerus -7.44711 0.0128084 -24.412
rradius 25.4462
rwrist -20.7877
rhand 19.9038 8.49671
rfingers 7.12502
rthumb 44.4454 -15.218
lclavicle 9.78021e-014 2.22639e-014
lhumerus -113.24 -158.616 194.115
lradius 86.1217
lwrist 81.3295
lhand 32.3044 25.1585
lfingers 7.12502
lthumb 55.7659 42.7283
rfemur -102.62 24.0925 -38.0178
rtibia 42.6471
rfoot -6.42558 -49.8014
rtoes 32.5619
lfemur 1.16424 -4.08414 -9.85236
ltibia 29.9295
lfoot -27.6605 28.4128
ltoes 0.0350267
123
root -3.48405 17.0501 -20.5394 174.743 14.7488 -152.951
lowerback 23.6563 -11.1423 3.26673
upperback 3.26946 -13.8187 -3.16793
thorax -10.8855 -6.53688 -0.733248
lowerneck -1.40416 -16.0201 -7.06892
upperneck 2.60478 -21.255 1.31373
head 1.96799 -10.6472 0.905704
rclavicle -4.77083e-014 4.13472e-014
rhumerus -8.31025 -3.87749 -24.0687
rradius 24.5699
rwrist -19.527
rhand 18.2104 10.155
rfingers 7.12502
rthumb 42.8644 -14.1387
lclavicle -4.77083e-014 4.13472e-014
lhumerus -110.538 -161.251 195.564
lradius 85.5452
lwrist 82.8772
lhand 31.7627 24.2768
lfingers 7.12502
lthumb 55.2843 42.2078
rfemur -103.258 22.9904 -44.4402
rtibia 41.488
rfoot -17.8839 -51.7563
rtoes 39.1016
lfemur 3.16662 -4.81987 -9.96453
ltibia 26.6434
lfoot -25.8264 29.0227
ltoes 2.75963
